<?xml version="1.0" encoding="iso-8859-1"?>
<!-- Generator: Adobe Illustrator 19.0.0, SVG Export Plug-In . SVG Version: 6.00 Build 0)  -->
<svg xmlns="http://www.w3.org/2000/svg" xmlns:xlink="http://www.w3.org/1999/xlink" version="1.1" id="Capa_1" x="0px" y="0px" viewBox="0 0 460 460" style="enable-background:new 0 0 460 460;" xml:space="preserve" width="512" height="512">
<g id="XMLID_824_">
	<path id="XMLID_1558_" style="fill:#B14724;" d="M320,15l-10,25l10,25c0,2.761-2.239,5-5,5h-85V10h85C317.761,10,320,12.239,320,15   z"/>
	<path id="XMLID_1519_" style="fill:#6B6457;" d="M235,5v435h-10V5c0-2.761,2.239-5,5-5l0,0C232.761,0,235,2.239,235,5z"/>
	<path id="XMLID_1543_" style="fill:#AEA99A;" d="M460,440v20H340H120H0v-20h20V230h100v-70l110-50l110,50v70h100v210H460z"/>
	<path id="XMLID_1544_" style="fill:#868378;" d="M114.865,327.573L110,240h10v87.431c0,1.419-1.15,2.569-2.569,2.569h0   C116.067,330,114.941,328.935,114.865,327.573z M345.135,327.573L350,240h-10v87.431c0,1.419,1.15,2.569,2.569,2.569l0,0   C343.933,330,345.059,328.935,345.135,327.573z"/>
	<path id="XMLID_1476_" style="fill:#D6CFBA;" d="M360,180h-10v10H110v-10h-10v-10h10h240h10V180z M120,250v-20H10H0v10h10v10H120z    M460,230v10h-10v10H340v-20h110H460z M10,330v-10H0v-10h10h110v20H10z M450,310H340v20h110v-10h10v-10H450z M165,210L165,210   c-13.807,0-25,11.193-25,25v95h50v-95C190,221.193,178.807,210,165,210z M230,210L230,210c-13.807,0-25,11.193-25,25v95h50v-95   C255,221.193,243.807,210,230,210z M295,210L295,210c-13.807,0-25,11.193-25,25v95h50v-95C320,221.193,308.807,210,295,210z"/>
	<path id="XMLID_1542_" style="fill:#6B6457;" d="M150,283.333v-26.667h30v26.667H150z M180,246.667V235c0-8.284-6.716-15-15-15h0   c-8.284,0-15,6.716-15,15v11.667H180z M150,293.333V320h30v-26.667H150z M245,283.333v-26.667h-30v26.667H245z M245,246.667V235   c0-8.284-6.716-15-15-15h0c-8.284,0-15,6.716-15,15v11.667H245z M215,293.333V320h30v-26.667H215z M310,283.333v-26.667h-30v26.667   H310z M310,246.667V235c0-8.284-6.716-15-15-15l0,0c-8.284,0-15,6.716-15,15v11.667H310z M280,293.333V320h30v-26.667H280z"/>
	<path id="XMLID_1154_" style="fill:#6B6457;" d="M260,380v60h-60v-60c0-16.569,13.431-30,30-30h0C246.569,350,260,363.431,260,380z    M150,350L150,350c-16.569,0-30,13.431-30,30v60h60v-60C180,363.431,166.569,350,150,350z M70,350L70,350   c-16.569,0-30,13.431-30,30v60h60v-60C100,363.431,86.569,350,70,350z M310,350L310,350c-16.569,0-30,13.431-30,30v60h60v-60   C340,363.431,326.569,350,310,350z M390,350L390,350c-16.569,0-30,13.431-30,30v60h60v-60C420,363.431,406.569,350,390,350z    M45,260L45,260c-2.761,0-5,2.239-5,5v30c0,2.761,2.239,5,5,5h0c2.761,0,5-2.239,5-5v-30C50,262.239,47.761,260,45,260z M70,260   L70,260c-2.761,0-5,2.239-5,5v30c0,2.761,2.239,5,5,5h0c2.761,0,5-2.239,5-5v-30C75,262.239,72.761,260,70,260z M95,260L95,260   c-2.761,0-5,2.239-5,5v30c0,2.761,2.239,5,5,5h0c2.761,0,5-2.239,5-5v-30C100,262.239,97.761,260,95,260z M365,260L365,260   c-2.761,0-5,2.239-5,5v30c0,2.761,2.239,5,5,5l0,0c2.761,0,5-2.239,5-5v-30C370,262.239,367.761,260,365,260z M390,260L390,260   c-2.761,0-5,2.239-5,5v30c0,2.761,2.239,5,5,5l0,0c2.761,0,5-2.239,5-5v-30C395,262.239,392.761,260,390,260z M415,260L415,260   c-2.761,0-5,2.239-5,5v30c0,2.761,2.239,5,5,5l0,0c2.761,0,5-2.239,5-5v-30C420,262.239,417.761,260,415,260z"/>
	<path id="XMLID_920_" style="fill:#D6CFBA;" d="M450,440H10v-10h440V440z"/>
	<path id="XMLID_1153_" style="fill:#6B6457;" d="M460,460H0v-10h460V460z"/>
</g>















</svg>
